HIERARCHY
ROOT hip
{
	OFFSET 0.000000 0.000000 0.000000 
	CHANNELS 6 Xposition Yposition Zposition Xrotation Zrotation Yrotation
	JOINT abdomen
	{
		OFFSET 0.000000 3.402643 0.000000 
		CHANNELS 3 Xrotation Zrotation Yrotation
		JOINT chest
		{
			OFFSET 0.000000 8.438565 -0.680529 
			CHANNELS 3 Xrotation Zrotation Yrotation
			JOINT neck
			{
				OFFSET 0.000000 10.207942 -0.272212 
				CHANNELS 3 Xrotation Zrotation Yrotation
				JOINT head
				{
					OFFSET 0.000000 3.130431 0.000000 
					CHANNELS 3 Xrotation Zrotation Yrotation
					End Site
					{
						OFFSET 0.000000 3.130435 0.000000 
					}
				}
			}
			JOINT lCollar
			{
				OFFSET 3.470700 6.669187 -0.816635 
				CHANNELS 3 Yrotation Zrotation Xrotation
				JOINT lShldr
				{
					OFFSET 3.198488 0.000000 0.000000 
					CHANNELS 3 Zrotation Yrotation Xrotation
					JOINT lForeArm
					{
						OFFSET 10.139888 0.000000 0.000000 
						CHANNELS 3 Yrotation Zrotation Xrotation
						JOINT lHand
						{
							OFFSET 8.370511 0.000000 0.000000 
							CHANNELS 3 Zrotation Yrotation Xrotation
							End Site
							{
								OFFSET 4.083176 0.000000 0.000000 
							}
						}
					}
				}
			}
			JOINT rCollar
			{
				OFFSET -3.470700 6.669187 -0.816635 
				CHANNELS 3 Yrotation Zrotation Xrotation
				JOINT rShldr
				{
					OFFSET -3.198488 0.000000 0.000000 
					CHANNELS 3 Zrotation Yrotation Xrotation
					JOINT rForeArm
					{
						OFFSET -10.139888 0.000000 0.000000 
						CHANNELS 3 Yrotation Zrotation Xrotation
						JOINT rHand
						{
							OFFSET -8.370511 0.000000 0.000000 
							CHANNELS 3 Zrotation Yrotation Xrotation
							End Site
							{
								OFFSET -4.083176 0.000000 0.000000 
							}
						}
					}
				}
			}
		}
	}
	JOINT lThigh
	{
		OFFSET 5.308129 -1.633274 1.361059 
		CHANNELS 3 Xrotation Zrotation Yrotation
		JOINT lShin
		{
			OFFSET -2.041588 -20.007561 0.000000 
			CHANNELS 3 Xrotation Zrotation Yrotation
			JOINT lFoot
			{
				OFFSET 0.000000 -19.190928 -1.224953 
				CHANNELS 3 Xrotation Yrotation Zrotation
				End Site
				{
					OFFSET 0.000000 -2.449906 4.627600 
				}
			}
		}
	}
	JOINT rThigh
	{
		OFFSET -5.308129 -1.633274 1.361059 
		CHANNELS 3 Xrotation Zrotation Yrotation
		JOINT rShin
		{
			OFFSET 2.041588 -20.007561 0.000000 
			CHANNELS 3 Xrotation Zrotation Yrotation
			JOINT rFoot
			{
				OFFSET 0.000000 -19.190928 -1.224953 
				CHANNELS 3 Xrotation Yrotation Zrotation
				End Site
				{
					OFFSET 0.000000 -2.449906 4.627600 
				}
			}
		}
	}
}
MOTION
Frames: 6
Frame Time: 0.033333
2.111099 52.680935 -1.984177 2.418680 3.628163 -30.746212 22.620758 -2.816272 -4.716872 -20.170963 6.353783 -0.670471 -19.684114 -6.778075 2.841510 5.070107 11.854222 3.791779 6.816112 -12.311937 2.827527 -9.767589 -97.084244 14.147761 -88.259567 4.252345 33.837349 8.524705 12.647240 -40.491589 0.373195 8.812257 0.818997 56.002758 21.837564 13.989046 61.894581 -9.399473 13.269082 -8.534408 -12.637552 30.120953 2.651658 2.019123 3.552898 14.144199 -5.930920 -2.674622 -16.623621 2.902035 -2.101363 -9.841041 -15.855449 1.618150 24.687860 5.571790 4.151850 -22.650595 -3.875581 0.982500 
2.126105 52.691875 -2.013249 2.426499 3.614963 -30.433472 22.752110 -2.716695 -4.928407 -20.102177 6.353980 -0.741028 -19.631414 -7.043708 2.851676 5.314030 12.119948 3.801797 6.816112 -12.311937 2.827527 -10.147183 -96.962311 14.418664 -88.341484 4.335581 33.914757 8.524705 12.647240 -40.384171 0.373195 8.812257 0.818997 55.953171 21.865612 14.145487 62.023720 -9.408715 13.327903 -8.534408 -12.637552 30.335793 2.592489 2.066525 3.432288 14.070334 -5.929498 -2.677098 -16.431257 2.760725 -2.150448 -9.753084 -15.855686 1.434772 24.658339 5.567736 4.158130 -22.741623 -4.013675 0.915345 
2.138922 52.692192 -2.014812 2.215569 3.471952 -29.694838 23.103909 -2.506234 -5.374842 -20.132038 6.245144 -0.870349 -19.433064 -7.108659 2.749273 5.634919 12.180286 3.660439 6.816112 -12.311937 2.827527 -10.548006 -96.800659 14.914109 -88.413254 4.411612 33.972008 8.524705 12.647240 -40.432999 0.373195 8.812257 0.818997 56.054367 21.741186 14.115814 62.117649 -9.406357 13.356320 -8.534408 -12.637552 30.277201 2.816123 2.095590 3.098630 14.049621 -5.929022 -2.665561 -16.238676 2.370840 -2.280840 -9.148176 -15.865808 1.038952 24.588070 5.571483 4.132375 -23.097031 -4.230062 0.776404 
2.145486 52.695633 -2.036384 2.232430 3.423078 -29.695934 23.165087 -2.549031 -5.312260 -20.112432 6.235828 -0.848618 -19.232992 -7.057957 2.711671 5.970578 12.069049 3.690912 6.816112 -12.311937 2.827527 -10.959840 -96.520699 15.438844 -88.486710 4.486516 34.030094 8.524705 12.647240 -40.315811 0.373195 8.812257 0.818997 56.096519 21.634792 14.168099 62.225060 -9.413949 13.413909 -8.534408 -12.637552 30.335793 2.772859 2.158759 3.175161 14.077319 -5.937630 -2.688584 -16.220226 2.352432 -2.269212 -9.126599 -15.804066 1.086205 24.517977 5.571303 4.126216 -23.073591 -4.261865 0.780244 
2.158304 52.701256 -2.066083 2.292132 3.358582 -29.676809 23.270674 -2.501901 -5.311815 -20.112322 6.265048 -0.858611 -19.179647 -7.005109 2.713024 6.445518 11.909184 3.769413 6.816112 -12.311937 2.827527 -11.257280 -96.258781 15.778883 -88.563332 4.560101 34.097187 8.524705 12.647240 -40.247448 0.373195 8.812257 0.818997 56.077312 21.624537 14.236528 62.320339 -9.415648 13.452581 -8.534408 -12.637552 30.501812 2.660508 2.261053 3.209777 14.127199 -5.919261 -2.691070 -16.182861 2.329560 -2.293056 -9.120323 -15.712167 1.033867 24.457094 5.576424 4.112252 -23.057041 -4.236421 0.785194 
2.173310 52.710636 -2.093905 2.342761 3.329446 -29.686083 23.369671 -2.499495 -5.254617 -20.102612 6.236048 -0.837792 -19.118090 -6.943777 2.679857 6.895805 11.728476 3.760163 6.816112 -12.311937 2.827527 -11.436532 -96.064255 16.080566 -88.645935 4.641252 34.165337 8.524705 12.647240 -40.286510 0.373195 8.812257 0.818997 56.153561 21.685091 14.167889 62.310963 -9.419783 13.460372 -8.534408 -12.637552 30.413921 2.525627 2.322131 3.133275 14.243208 -5.921654 -2.682462 -16.206352 2.409914 -2.270727 -9.146402 -15.647878 0.995799 24.396494 5.580131 4.098020 -22.932142 -4.289163 0.790846 
